<svg xmlns="http://www.w3.org/2000/svg" viewBox="0 0 1600 900"><defs><linearGradient id="g" x1="0" x2="1" y1="0" y2="1"><stop stop-color="#122a50"/><stop offset=".5" stop-color="#090b16"/><stop offset="1" stop-color="#200b2e"/></linearGradient><radialGradient id="r"><stop stop-color="#f5b942"/><stop offset="1" stop-color="#f5b942" stop-opacity="0"/></radialGradient></defs><rect width="1600" height="900" fill="url(#g)"/><circle cx="1160" cy="210" r="190" fill="url(#r)" opacity=".45"/><path d="M0 690 250 420l155 155 210-310 240 345 130-150 165 200 210-280 240 310v210H0z" fill="#dbeafe" opacity=".9"/><path d="M0 740 300 520l210 120 210-230 280 250 185-120 415 230v130H0z" fill="#0f172a" opacity=".75"/><path d="M800 155c-50 80-43 190 14 253-107-8-188 91-151 188 22 59 87 92 149 76-75 62-65 181 22 225h150c87-44 97-163 22-225 62 16 127-17 149-76 37-97-44-196-151-188 57-63 64-173 14-253-46 102-172 102-218 0z" fill="#060815" opacity=".55"/></svg>
