<svg xmlns="http://www.w3.org/2000/svg" viewBox="0 0 900 700"><defs><linearGradient id="g" x1="0" x2="1"><stop stop-color="#101a42"/><stop offset="1" stop-color="#0b1026"/></linearGradient><radialGradient id="r"><stop stop-color="#7dd3fc" stop-opacity=".8"/><stop offset="1" stop-color="#7dd3fc" stop-opacity="0"/></radialGradient></defs><rect width="900" height="700" rx="40" fill="url(#g)"/><circle cx="450" cy="230" r="210" fill="url(#r)"/><path d="M70 570 250 310l80 130 150-230 180 300 70-90 120 150z" fill="#e6edf7" opacity=".88"/><path d="M70 570 250 310l80 130 150-230 180 300 70-90 120 150z" fill="none" stroke="#7dd3fc" stroke-opacity=".35" stroke-width="5"/><circle cx="450" cy="285" r="82" fill="#0b1026"/><path d="M377 370c40 42 105 42 146 0" stroke="#f2c66d" stroke-width="18" fill="none" stroke-linecap="round"/><path d="M450 210c-45 38-52 91-8 126 51-31 59-87 8-126z" fill="#7dd3fc" opacity=".85"/><text x="450" y="108" text-anchor="middle" font-size="68" fill="#f2c66d">ॐ</text></svg>
